<svg width="32" height="32" viewBox="0 0 32 32" fill="none">
<rect width="32" height="32" rx="16" fill="#C4C4C4"/>
<path d="M5.82773 17.42V17.12H7.66773L10.5477 23.24L10.2177 24H8.91773L5.82773 17.42ZM11.4777 21.11H11.4377L10.7677 22.73L9.90773 20.89L11.4777 17.12H13.3777V24H11.4777V21.11ZM5.82773 18.41L7.66773 22.33V24H5.82773V18.41ZM14.6754 17.12H16.6754V24H14.6754V17.12ZM17.0954 22.47H17.1754C17.5021 22.47 17.7321 22.4567 17.8654 22.43C18.0054 22.3967 18.1087 22.3233 18.1754 22.21C18.2487 22.09 18.2887 21.9 18.2954 21.64C18.3087 21.3067 18.3154 20.9467 18.3154 20.56C18.3154 20.18 18.3087 19.8167 18.2954 19.47C18.2821 19.21 18.2387 19.02 18.1654 18.9C18.0987 18.78 17.9887 18.7067 17.8354 18.68C17.6821 18.66 17.4621 18.65 17.1754 18.65H17.0954V17.12H17.1754C17.7087 17.12 18.1521 17.1433 18.5054 17.19C18.8654 17.2367 19.1621 17.31 19.3954 17.41C19.6221 17.51 19.8021 17.6467 19.9354 17.82C20.0687 17.9933 20.1654 18.21 20.2254 18.47C20.2787 18.7033 20.3121 18.98 20.3254 19.3C20.3454 19.6133 20.3554 20.0333 20.3554 20.56C20.3554 21.0933 20.3454 21.5167 20.3254 21.83C20.3121 22.1433 20.2787 22.4167 20.2254 22.65C20.1654 22.91 20.0687 23.1267 19.9354 23.3C19.8021 23.4733 19.6221 23.61 19.3954 23.71C19.1621 23.81 18.8654 23.8833 18.5054 23.93C18.1521 23.9767 17.7087 24 17.1754 24H17.0954V22.47Z" fill="#333333"/>
<path d="M25.1304 21.85C25.1304 21.6767 25.117 21.5467 25.0904 21.46C25.0704 21.3667 25.0237 21.2967 24.9504 21.25C24.877 21.2033 24.777 21.1733 24.6504 21.16C24.5237 21.14 24.3404 21.13 24.1004 21.13C23.6604 21.13 23.1937 21.15 22.7004 21.19C22.387 21.2167 22.1837 21.2333 22.0904 21.24V17.12H23.7804V19.66L24.1104 19.63C24.5704 19.61 24.897 19.6 25.0904 19.6C25.8837 19.6 26.4437 19.79 26.7704 20.17C26.917 20.3433 27.0204 20.5567 27.0804 20.81C27.1404 21.0567 27.1704 21.3533 27.1704 21.7C27.1704 22.0933 27.1404 22.4233 27.0804 22.69C27.0204 22.9567 26.917 23.1833 26.7704 23.37C26.6237 23.5567 26.4137 23.7067 26.1404 23.82C25.8737 23.9267 25.537 24 25.1304 24.04V21.85ZM24.2004 17.12H26.6604V18.67H24.2004V17.12ZM24.2304 24.08C23.8237 24.08 23.4204 24.0567 23.0204 24.01C22.627 23.9633 22.2904 23.9067 22.0104 23.84V22.41C22.777 22.4967 23.4437 22.54 24.0104 22.54C24.3237 22.54 24.557 22.5333 24.7104 22.52V24.07C24.6037 24.0767 24.4437 24.08 24.2304 24.08Z" fill="#F1F1F1"/>
<path fill-rule="evenodd" clip-rule="evenodd" d="M12 15V14.1251H20V15H12ZM12 12.8564H20V13.7313H12V12.8564ZM12 11.544H20V12.4189H12V11.544ZM12 10.2753H20V11.1502H12V10.2753ZM12 9.00672H12.8144V5.98806C12.8144 5.98806 13.4042 3.97296 16.1587 4.00028C18.9132 4.02759 19.2755 5.98806 19.2755 5.98806V9.00662H20V9.88157H12V9.00672ZM18.3622 6.25054C18.3622 6.25054 17.7574 4.94356 16.1107 4.92995C14.464 4.91634 13.7725 6.25054 13.7725 6.25054V9.00662H18.3622V6.25054Z" fill="#333333"/>
</svg>
