<?xml version="1.0" standalone="no"?>
<!DOCTYPE svg PUBLIC "-//W3C//DTD SVG 20010904//EN"
 "http://www.w3.org/TR/2001/REC-SVG-20010904/DTD/svg10.dtd">
<svg version="1.0" xmlns="http://www.w3.org/2000/svg"
 width="700.000000pt" height="700.000000pt" viewBox="0 0 700.000000 700.000000"
 preserveAspectRatio="xMidYMid meet">
<metadata>
Created by potrace 1.14, written by Peter Selinger 2001-2017
</metadata>
<g transform="translate(0.000000,700.000000) scale(0.100000,-0.100000)"
fill="#000000" stroke="none">
<path d="M3400 6120 c-101 -12 -188 -38 -280 -82 -69 -34 -101 -58 -170 -127
-56 -57 -96 -108 -117 -150 l-33 -64 0 -333 0 -334 -90 0 -90 0 0 -95 0 -95
880 0 880 0 0 95 0 95 -80 0 -79 0 -3 348 -3 347 -39 72 c-51 97 -158 199
-258 247 -149 71 -330 98 -518 76z m262 -219 c42 -11 98 -31 126 -45 56 -28
152 -112 194 -170 l28 -39 0 -309 0 -308 -500 0 -500 0 0 297 0 296 31 49
c122 189 390 288 621 229z"/>
<path d="M2620 4655 l0 -95 880 0 880 0 0 95 0 95 -880 0 -880 0 0 -95z"/>
<path d="M2627 4473 c-4 -3 -7 -48 -7 -100 l0 -93 880 0 881 0 -3 98 -3 97
-871 3 c-479 1 -874 -1 -877 -5z"/>
<path d="M2622 4093 l3 -98 875 0 875 0 3 98 3 97 -881 0 -881 0 3 -97z"/>
<path d="M2620 3815 l0 -95 880 0 880 0 0 95 0 95 -880 0 -880 0 0 -95z"/>
<path d="M1277 3253 c-4 -3 -7 -18 -7 -32 0 -14 152 -350 338 -746 l338 -720
146 -3 145 -3 36 84 36 84 -316 671 -316 672 -197 0 c-108 0 -200 -3 -203 -7z"/>
<path d="M2501 3238 c-5 -13 -81 -197 -170 -410 -88 -212 -161 -391 -161 -397
0 -6 41 -99 92 -207 85 -181 92 -194 104 -172 6 12 40 93 75 178 l64 155 3
-317 2 -318 210 0 210 0 -2 753 -3 752 -208 3 -207 2 -9 -22z"/>
<path d="M3210 2505 l0 -755 220 0 220 0 0 755 0 755 -220 0 -220 0 0 -755z"/>
<path d="M3740 3093 l0 -170 90 -6 c166 -12 170 -23 169 -421 -1 -316 -5 -348
-58 -383 -29 -19 -47 -23 -117 -23 l-84 0 0 -172 0 -171 148 6 c356 14 480 82
539 298 16 56 18 112 18 449 0 337 -2 394 -18 455 -54 212 -180 280 -554 300
l-133 7 0 -169z"/>
<path d="M1270 2362 l0 -612 205 0 205 0 0 182 0 182 -197 421 c-108 231 -200
424 -205 430 -4 5 -8 -266 -8 -603z"/>
</g>
</svg>
